<svg width="240" height="69" viewBox="0 0 240 69" fill="none" xmlns="http://www.w3.org/2000/svg">
<path fill-rule="evenodd" clip-rule="evenodd" d="M12.07 40.56C10.8202 39.9069 9.66324 39.0897 8.63 38.13L4.95001 39.44L1.48999 33.98L4.25 31.21C3.82478 29.8649 3.57934 28.4695 3.52002 27.06L0 25.39L1.41003 19.08H5.31C5.96053 17.8256 6.77795 16.665 7.73999 15.63L6.42999 11.95L11.89 8.48999L14.66 11.25C16.0044 10.8231 17.4004 10.5809 18.81 10.53L20.48 7L26.79 8.41V12.32C28.0429 12.973 29.2031 13.7902 30.24 14.75L33.92 13.44L37.38 18.89L34.62 21.66C35.0469 23.0043 35.2891 24.4004 35.34 25.81L38.87 27.49L37.45 33.79H33.55C32.8969 35.0399 32.0797 36.1968 31.12 37.23L32.43 40.91L26.98 44.37L24.21 41.61C22.8649 42.0352 21.4695 42.2807 20.06 42.34L18.38 45.86L12.08 44.45V40.55L12.07 40.56ZM17.63 33.14C18.9674 33.439 20.3634 33.3348 21.6415 32.8405C22.9197 32.3462 24.0226 31.484 24.8109 30.3629C25.5991 29.2419 26.0372 27.9124 26.0699 26.5424C26.1027 25.1723 25.7285 23.8234 24.9946 22.666C24.2608 21.5086 23.2003 20.5948 21.9471 20.0401C20.694 19.4854 19.3046 19.3146 17.9545 19.5494C16.6043 19.7843 15.3541 20.4141 14.3619 21.3594C13.3697 22.3046 12.68 23.5228 12.38 24.86C11.9829 26.6512 12.3113 28.5267 13.2932 30.0764C14.2752 31.6262 15.8308 32.7241 17.62 33.13L17.63 33.14Z" fill="white"/>
<path d="M61.3352 34H51.9265V8.54545H61.3228C63.9163 8.54545 66.1494 9.05504 68.022 10.0742C69.9029 11.0851 71.353 12.5434 72.3722 14.4492C73.3913 16.3467 73.9009 18.6171 73.9009 21.2603C73.9009 23.9118 73.3913 26.1905 72.3722 28.0962C71.3613 30.002 69.9154 31.4645 68.0344 32.4837C66.1535 33.4946 63.9205 34 61.3352 34ZM58.0788 28.755H61.0991C62.5243 28.755 63.7299 28.5147 64.7159 28.0341C65.7102 27.5452 66.4601 26.7539 66.9656 25.6602C67.4793 24.5581 67.7362 23.0915 67.7362 21.2603C67.7362 19.4291 67.4793 17.9708 66.9656 16.8853C66.4518 15.7915 65.6937 15.0044 64.6911 14.5238C63.6967 14.0349 62.4704 13.7905 61.0121 13.7905H58.0788V28.755ZM86.4169 34.3604C84.42 34.3604 82.6965 33.9669 81.2464 33.1797C79.8047 32.3842 78.6944 31.2532 77.9155 29.7866C77.1449 28.3117 76.7596 26.5592 76.7596 24.5291C76.7596 22.5571 77.149 20.8336 77.9279 19.3587C78.7068 17.8755 79.8047 16.7237 81.2216 15.9034C82.6385 15.0748 84.3081 14.6605 86.2305 14.6605C87.5894 14.6605 88.8323 14.8718 89.9592 15.2944C91.0861 15.717 92.0597 16.3426 92.88 17.1712C93.7003 17.9998 94.3383 19.0231 94.794 20.2411C95.2498 21.4509 95.4776 22.8388 95.4776 24.4048V25.9212H78.8849V22.3913H89.8224C89.8142 21.745 89.6609 21.1692 89.3626 20.6637C89.0643 20.1583 88.6541 19.7647 88.1321 19.483C87.6184 19.1929 87.0259 19.0479 86.3548 19.0479C85.6753 19.0479 85.0663 19.2012 84.5277 19.5078C83.9891 19.8061 83.5624 20.2163 83.2475 20.7383C82.9326 21.252 82.7669 21.8362 82.7504 22.4908V26.0827C82.7504 26.8616 82.9036 27.5452 83.2102 28.1335C83.5168 28.7135 83.9518 29.1651 84.5153 29.4883C85.0787 29.8114 85.7499 29.973 86.5288 29.973C87.0674 29.973 87.5562 29.8984 87.9954 29.7493C88.4345 29.6001 88.8116 29.3806 89.1264 29.0906C89.4413 28.8005 89.6774 28.4442 89.8349 28.0217L95.4155 28.1832C95.1835 29.4344 94.6739 30.524 93.8867 31.4521C93.1078 32.3718 92.0845 33.0885 90.8168 33.6023C89.549 34.1077 88.0824 34.3604 86.4169 34.3604ZM98.5818 34V14.9091H104.361V18.4141H104.573C104.97 17.254 105.641 16.3384 106.586 15.6673C107.531 14.9961 108.658 14.6605 109.967 14.6605C111.292 14.6605 112.428 15.0002 113.372 15.6797C114.317 16.3591 114.918 17.2706 115.174 18.4141H115.373C115.73 17.2789 116.426 16.3716 117.461 15.6921C118.497 15.0044 119.719 14.6605 121.128 14.6605C122.934 14.6605 124.401 15.2405 125.528 16.4006C126.655 17.5523 127.218 19.1349 127.218 21.1484V34H121.14V22.5405C121.14 21.5876 120.896 20.8626 120.407 20.3654C119.918 19.86 119.284 19.6072 118.505 19.6072C117.669 19.6072 117.01 19.8807 116.529 20.4276C116.057 20.9661 115.821 21.6912 115.821 22.6026V34H109.979V22.4783C109.979 21.5917 109.739 20.8916 109.258 20.3778C108.778 19.8641 108.144 19.6072 107.357 19.6072C106.826 19.6072 106.358 19.7357 105.952 19.9925C105.546 20.2411 105.227 20.5974 104.995 21.0614C104.771 21.5254 104.66 22.0723 104.66 22.7021V34H98.5818ZM139.896 34.3604C137.89 34.3604 136.167 33.9503 134.725 33.13C133.292 32.3014 132.186 31.1496 131.407 29.6747C130.636 28.1915 130.251 26.4722 130.251 24.5167C130.251 22.5529 130.636 20.8336 131.407 19.3587C132.186 17.8755 133.292 16.7237 134.725 15.9034C136.167 15.0748 137.89 14.6605 139.896 14.6605C141.901 14.6605 143.62 15.0748 145.054 15.9034C146.495 16.7237 147.602 17.8755 148.372 19.3587C149.151 20.8336 149.541 22.5529 149.541 24.5167C149.541 26.4722 149.151 28.1915 148.372 29.6747C147.602 31.1496 146.495 32.3014 145.054 33.13C143.62 33.9503 141.901 34.3604 139.896 34.3604ZM139.933 29.7741C140.662 29.7741 141.279 29.5504 141.785 29.103C142.29 28.6555 142.676 28.0341 142.941 27.2386C143.214 26.4432 143.351 25.5234 143.351 24.4794C143.351 23.4188 143.214 22.4908 142.941 21.6953C142.676 20.8999 142.29 20.2784 141.785 19.831C141.279 19.3835 140.662 19.1598 139.933 19.1598C139.179 19.1598 138.541 19.3835 138.019 19.831C137.505 20.2784 137.112 20.8999 136.838 21.6953C136.573 22.4908 136.44 23.4188 136.44 24.4794C136.44 25.5234 136.573 26.4432 136.838 27.2386C137.112 28.0341 137.505 28.6555 138.019 29.103C138.541 29.5504 139.179 29.7741 139.933 29.7741Z" fill="white"/>
<g filter="url(#filter0_d_656_377)">
<path fill-rule="evenodd" clip-rule="evenodd" d="M22.07 55.56C20.8202 54.9069 19.6632 54.0897 18.63 53.13L14.95 54.44L11.49 48.98L14.25 46.21C13.8248 44.8649 13.5793 43.4695 13.52 42.06L10 40.39L11.41 34.08H15.31C15.9605 32.8256 16.778 31.665 17.74 30.63L16.43 26.95L21.89 23.49L24.66 26.25C26.0044 25.8231 27.4004 25.5809 28.81 25.53L30.48 22L36.79 23.41V27.32C38.0429 27.973 39.2031 28.7902 40.24 29.75L43.92 28.44L47.38 33.89L44.62 36.66C45.0469 38.0043 45.2891 39.4004 45.34 40.81L48.87 42.49L47.45 48.79H43.55C42.8969 50.0399 42.0797 51.1968 41.12 52.23L42.43 55.91L36.98 59.37L34.21 56.61C32.8649 57.0352 31.4695 57.2807 30.06 57.34L28.38 60.86L22.08 59.45V55.55L22.07 55.56ZM27.63 48.14C28.9674 48.439 30.3634 48.3348 31.6415 47.8405C32.9197 47.3462 34.0226 46.484 34.8109 45.3629C35.5991 44.2419 36.0372 42.9124 36.0699 41.5424C36.1027 40.1723 35.7285 38.8234 34.9946 37.666C34.2608 36.5086 33.2003 35.5948 31.9471 35.0401C30.694 34.4854 29.3046 34.3146 27.9545 34.5494C26.6043 34.7843 25.3541 35.4141 24.3619 36.3594C23.3697 37.3046 22.68 38.5228 22.38 39.86C21.9829 41.6512 22.3113 43.5267 23.2932 45.0764C24.2752 46.6262 25.8308 47.7241 27.62 48.13L27.63 48.14Z" fill="white"/>
</g>
<path d="M61.3352 61H51.9265V35.5455H61.3228C63.9163 35.5455 66.1494 36.055 68.022 37.0742C69.9029 38.0851 71.353 39.5434 72.3722 41.4492C73.3913 43.3467 73.9009 45.6171 73.9009 48.2603C73.9009 50.9118 73.3913 53.1905 72.3722 55.0962C71.3613 57.002 69.9154 58.4645 68.0344 59.4837C66.1535 60.4946 63.9205 61 61.3352 61ZM58.0788 55.755H61.0991C62.5243 55.755 63.7299 55.5147 64.7159 55.0341C65.7102 54.5452 66.4601 53.7539 66.9656 52.6602C67.4793 51.5581 67.7362 50.0915 67.7362 48.2603C67.7362 46.4291 67.4793 44.9708 66.9656 43.8853C66.4518 42.7915 65.6937 42.0044 64.6911 41.5238C63.6967 41.0349 62.4704 40.7905 61.0121 40.7905H58.0788V55.755ZM82.8746 61.3232C81.6566 61.3232 80.5753 61.1201 79.6307 60.7141C78.6944 60.2998 77.9528 59.6784 77.4059 58.8498C76.8673 58.0129 76.598 56.9647 76.598 55.7053C76.598 54.6446 76.7844 53.7498 77.1573 53.0206C77.5302 52.2914 78.0439 51.699 78.6985 51.2433C79.3531 50.7875 80.1071 50.4437 80.9606 50.2116C81.814 49.9714 82.7255 49.8098 83.695 49.7269C84.7804 49.6275 85.6546 49.5239 86.3175 49.4162C86.9804 49.3002 87.4609 49.1386 87.7592 48.9315C88.0658 48.716 88.2191 48.4136 88.2191 48.0241V47.962C88.2191 47.324 87.9995 46.831 87.5604 46.483C87.1212 46.1349 86.5288 45.9609 85.783 45.9609C84.9793 45.9609 84.333 46.1349 83.8441 46.483C83.3552 46.831 83.0445 47.3116 82.9119 47.9247L77.3065 47.7259C77.4722 46.5658 77.8989 45.5301 78.5866 44.6186C79.2827 43.6989 80.2356 42.978 81.4453 42.456C82.6634 41.9257 84.1258 41.6605 85.8327 41.6605C87.0508 41.6605 88.1735 41.8055 89.201 42.0955C90.2285 42.3772 91.1233 42.7915 91.8857 43.3384C92.648 43.877 93.2363 44.5399 93.6506 45.3271C94.0732 46.1142 94.2844 47.0133 94.2844 48.0241V61H88.5671V58.3402H88.418C88.0782 58.9865 87.6432 59.5334 87.1129 59.9808C86.5909 60.4283 85.9736 60.7638 85.261 60.9876C84.5567 61.2113 83.7612 61.3232 82.8746 61.3232ZM84.7514 57.3459C85.406 57.3459 85.9943 57.2133 86.5163 56.9482C87.0466 56.683 87.4692 56.3184 87.7841 55.8544C88.099 55.3821 88.2564 54.8352 88.2564 54.2138V52.3991C88.0824 52.4903 87.8711 52.5732 87.6225 52.6477C87.3822 52.7223 87.1171 52.7927 86.8271 52.859C86.5371 52.9253 86.2388 52.9833 85.9322 53.033C85.6256 53.0827 85.3314 53.1283 85.0497 53.1697C84.478 53.2609 83.9891 53.4018 83.5831 53.5923C83.1854 53.7829 82.8788 54.0315 82.6634 54.3381C82.4562 54.6364 82.3526 54.9927 82.3526 55.407C82.3526 56.0367 82.5763 56.5173 83.0238 56.8487C83.4795 57.1802 84.0554 57.3459 84.7514 57.3459ZM114.668 47.7383L109.087 47.8874C109.029 47.4897 108.872 47.1375 108.615 46.831C108.358 46.5161 108.023 46.2717 107.608 46.0977C107.202 45.9154 106.73 45.8242 106.191 45.8242C105.487 45.8242 104.886 45.9651 104.389 46.2468C103.9 46.5285 103.66 46.9097 103.668 47.3903C103.66 47.7631 103.809 48.0863 104.116 48.3597C104.431 48.6332 104.99 48.8527 105.794 49.0185L109.473 49.7145C111.378 50.0791 112.795 50.6839 113.723 51.5291C114.66 52.3743 115.132 53.4929 115.14 54.8849C115.132 56.1941 114.743 57.3335 113.972 58.3029C113.21 59.2724 112.166 60.0264 110.84 60.565C109.514 61.0953 107.998 61.3604 106.291 61.3604C103.565 61.3604 101.415 60.8011 99.8402 59.6825C98.2741 58.5556 97.3793 57.0476 97.1555 55.1584L103.159 55.0092C103.291 55.7053 103.635 56.2356 104.19 56.6001C104.746 56.9647 105.454 57.147 106.316 57.147C107.095 57.147 107.728 57.002 108.217 56.712C108.706 56.422 108.955 56.0367 108.963 55.5561C108.955 55.1252 108.764 54.7814 108.391 54.5245C108.018 54.2594 107.434 54.0522 106.639 53.9031L103.308 53.2692C101.394 52.9212 99.9686 52.279 99.0323 51.3427C98.096 50.3981 97.632 49.1966 97.6403 47.7383C97.632 46.4622 97.9717 45.3726 98.6594 44.4695C99.3472 43.558 100.325 42.862 101.593 42.3814C102.86 41.9008 104.356 41.6605 106.08 41.6605C108.665 41.6605 110.703 42.2032 112.195 43.2887C113.686 44.3659 114.511 45.8491 114.668 47.7383ZM124.21 50.1122V61H118.133V35.5455H124.011V45.4141H124.223C124.654 44.2375 125.358 43.3177 126.336 42.6548C127.322 41.992 128.527 41.6605 129.953 41.6605C131.295 41.6605 132.463 41.9588 133.457 42.5554C134.452 43.1437 135.222 43.9764 135.769 45.0536C136.324 46.1308 136.598 47.3903 136.59 48.832V61H130.512V50.0252C130.52 48.9646 130.255 48.136 129.716 47.5394C129.178 46.9428 128.42 46.6445 127.442 46.6445C126.804 46.6445 126.24 46.7854 125.752 47.0671C125.271 47.3406 124.894 47.7341 124.62 48.2479C124.355 48.7616 124.219 49.383 124.21 50.1122ZM140.384 61V35.5455H146.461V45.1779H146.586C146.834 44.5979 147.186 44.0386 147.642 43.5C148.106 42.9614 148.694 42.5223 149.407 42.1825C150.128 41.8345 150.99 41.6605 151.992 41.6605C153.318 41.6605 154.557 42.0085 155.708 42.7045C156.868 43.4006 157.805 44.4736 158.517 45.9237C159.23 47.3737 159.586 49.2215 159.586 51.467C159.586 53.6296 159.242 55.4401 158.555 56.8984C157.875 58.3568 156.955 59.4505 155.795 60.1797C154.644 60.9089 153.364 61.2734 151.955 61.2734C150.994 61.2734 150.161 61.116 149.457 60.8011C148.752 60.4863 148.16 60.072 147.679 59.5582C147.207 59.0445 146.842 58.4935 146.586 57.9052H146.399V61H140.384ZM146.337 51.4545C146.337 52.482 146.474 53.3769 146.747 54.1392C147.029 54.9015 147.431 55.494 147.953 55.9165C148.483 56.3308 149.117 56.538 149.854 56.538C150.6 56.538 151.234 56.3308 151.756 55.9165C152.278 55.494 152.672 54.9015 152.937 54.1392C153.21 53.3769 153.347 52.482 153.347 51.4545C153.347 50.4271 153.21 49.5363 152.937 48.7823C152.672 48.0283 152.278 47.4441 151.756 47.0298C151.242 46.6155 150.608 46.4084 149.854 46.4084C149.109 46.4084 148.475 46.6114 147.953 47.0174C147.431 47.4234 147.029 48.0034 146.747 48.7575C146.474 49.5115 146.337 50.4105 146.337 51.4545ZM171.683 61.3604C169.678 61.3604 167.954 60.9503 166.512 60.13C165.079 59.3014 163.973 58.1496 163.194 56.6747C162.423 55.1915 162.038 53.4722 162.038 51.5167C162.038 49.5529 162.423 47.8336 163.194 46.3587C163.973 44.8755 165.079 43.7237 166.512 42.9034C167.954 42.0748 169.678 41.6605 171.683 41.6605C173.688 41.6605 175.407 42.0748 176.841 42.9034C178.283 43.7237 179.389 44.8755 180.159 46.3587C180.938 47.8336 181.328 49.5529 181.328 51.5167C181.328 53.4722 180.938 55.1915 180.159 56.6747C179.389 58.1496 178.283 59.3014 176.841 60.13C175.407 60.9503 173.688 61.3604 171.683 61.3604ZM171.72 56.7741C172.449 56.7741 173.067 56.5504 173.572 56.103C174.077 55.6555 174.463 55.0341 174.728 54.2386C175.001 53.4432 175.138 52.5234 175.138 51.4794C175.138 50.4188 175.001 49.4908 174.728 48.6953C174.463 47.8999 174.077 47.2784 173.572 46.831C173.067 46.3835 172.449 46.1598 171.72 46.1598C170.966 46.1598 170.328 46.3835 169.806 46.831C169.292 47.2784 168.899 47.8999 168.625 48.6953C168.36 49.4908 168.228 50.4188 168.228 51.4794C168.228 52.5234 168.36 53.4432 168.625 54.2386C168.899 55.0341 169.292 55.6555 169.806 56.103C170.328 56.5504 170.966 56.7741 171.72 56.7741ZM189.823 61.3232C188.605 61.3232 187.524 61.1201 186.579 60.7141C185.643 60.2998 184.901 59.6784 184.354 58.8498C183.816 58.0129 183.546 56.9647 183.546 55.7053C183.546 54.6446 183.733 53.7498 184.106 53.0206C184.478 52.2914 184.992 51.699 185.647 51.2433C186.301 50.7875 187.055 50.4437 187.909 50.2116C188.762 49.9714 189.674 49.8098 190.643 49.7269C191.729 49.6275 192.603 49.5239 193.266 49.4162C193.929 49.3002 194.409 49.1386 194.707 48.9315C195.014 48.716 195.167 48.4136 195.167 48.0241V47.962C195.167 47.324 194.948 46.831 194.509 46.483C194.069 46.1349 193.477 45.9609 192.731 45.9609C191.928 45.9609 191.281 46.1349 190.792 46.483C190.303 46.831 189.993 47.3116 189.86 47.9247L184.255 47.7259C184.42 46.5658 184.847 45.5301 185.535 44.6186C186.231 43.6989 187.184 42.978 188.394 42.456C189.612 41.9257 191.074 41.6605 192.781 41.6605C193.999 41.6605 195.122 41.8055 196.149 42.0955C197.177 42.3772 198.072 42.7915 198.834 43.3384C199.596 43.877 200.185 44.5399 200.599 45.3271C201.021 46.1142 201.233 47.0133 201.233 48.0241V61H195.515V58.3402H195.366C195.026 58.9865 194.591 59.5334 194.061 59.9808C193.539 60.4283 192.922 60.7638 192.209 60.9876C191.505 61.2113 190.709 61.3232 189.823 61.3232ZM191.7 57.3459C192.354 57.3459 192.943 57.2133 193.465 56.9482C193.995 56.683 194.417 56.3184 194.732 55.8544C195.047 55.3821 195.205 54.8352 195.205 54.2138V52.3991C195.031 52.4903 194.819 52.5732 194.571 52.6477C194.33 52.7223 194.065 52.7927 193.775 52.859C193.485 52.9253 193.187 52.9833 192.88 53.033C192.574 53.0827 192.28 53.1283 191.998 53.1697C191.426 53.2609 190.937 53.4018 190.531 53.5923C190.134 53.7829 189.827 54.0315 189.612 54.3381C189.404 54.6364 189.301 54.9927 189.301 55.407C189.301 56.0367 189.525 56.5173 189.972 56.8487C190.428 57.1802 191.004 57.3459 191.7 57.3459ZM204.949 61V41.9091H210.853V45.3892H211.052C211.4 44.1297 211.967 43.1934 212.754 42.5803C213.542 41.9588 214.457 41.6481 215.501 41.6481C215.783 41.6481 216.073 41.6688 216.371 41.7102C216.669 41.7434 216.947 41.7972 217.204 41.8718V47.1541C216.914 47.0547 216.533 46.976 216.06 46.918C215.596 46.86 215.182 46.831 214.818 46.831C214.097 46.831 213.446 46.9925 212.866 47.3157C212.294 47.6306 211.843 48.0739 211.511 48.6456C211.188 49.209 211.027 49.8719 211.027 50.6342V61H204.949ZM225.662 61.2734C224.253 61.2734 222.973 60.9089 221.821 60.1797C220.67 59.4505 219.75 58.3568 219.062 56.8984C218.374 55.4401 218.03 53.6296 218.03 51.467C218.03 49.2215 218.387 47.3737 219.099 45.9237C219.812 44.4736 220.744 43.4006 221.896 42.7045C223.056 42.0085 224.303 41.6605 225.637 41.6605C226.64 41.6605 227.497 41.8345 228.21 42.1825C228.922 42.5223 229.511 42.9614 229.975 43.5C230.439 44.0386 230.791 44.5979 231.031 45.1779H231.155V35.5455H237.233V61H231.218V57.9052H231.031C230.774 58.4935 230.41 59.0445 229.937 59.5582C229.465 60.072 228.873 60.4863 228.16 60.8011C227.456 61.116 226.623 61.2734 225.662 61.2734ZM227.775 56.538C228.512 56.538 229.142 56.3308 229.664 55.9165C230.186 55.494 230.588 54.9015 230.87 54.1392C231.151 53.3769 231.292 52.482 231.292 51.4545C231.292 50.4105 231.151 49.5115 230.87 48.7575C230.596 48.0034 230.194 47.4234 229.664 47.0174C229.142 46.6114 228.512 46.4084 227.775 46.4084C227.021 46.4084 226.383 46.6155 225.861 47.0298C225.339 47.4441 224.941 48.0283 224.668 48.7823C224.402 49.5363 224.27 50.4271 224.27 51.4545C224.27 52.482 224.407 53.3769 224.68 54.1392C224.953 54.9015 225.347 55.494 225.861 55.9165C226.383 56.3308 227.021 56.538 227.775 56.538Z" fill="white"/>
<defs>
<filter id="filter0_d_656_377" x="10" y="19" width="52.8691" height="46.8599" filterUnits="userSpaceOnUse" color-interpolation-filters="sRGB">
<feFlood flood-opacity="0" result="BackgroundImageFix"/>
<feColorMatrix in="SourceAlpha" type="matrix" values="0 0 0 0 0 0 0 0 0 0 0 0 0 0 0 0 0 0 127 0" result="hardAlpha"/>
<feOffset dx="10" dy="1"/>
<feGaussianBlur stdDeviation="2"/>
<feComposite in2="hardAlpha" operator="out"/>
<feColorMatrix type="matrix" values="0 0 0 0 0 0 0 0 0 0 0 0 0 0 0 0 0 0 0.25 0"/>
<feBlend mode="normal" in2="BackgroundImageFix" result="effect1_dropShadow_656_377"/>
<feBlend mode="normal" in="SourceGraphic" in2="effect1_dropShadow_656_377" result="shape"/>
</filter>
</defs>
</svg>
